HIERARCHY
ROOT root
{
	OFFSET 0.000000 0.000000 0.000000
	CHANNELS 6 Xposition Yposition Zposition Zrotation Yrotation Xrotation
	JOINT lhip
	{
		OFFSET 0.058581 -0.082280 -0.017664
		CHANNELS 3 Zrotation Yrotation Xrotation
		JOINT lknee
		{
			OFFSET 0.043451 -0.386469 0.008037
			CHANNELS 3 Zrotation Yrotation Xrotation
			JOINT lankle
			{
				OFFSET -0.014790 -0.426874 -0.037428
				CHANNELS 3 Zrotation Yrotation Xrotation
				JOINT ltoe
				{
					OFFSET 0.041054 -0.060286 0.122042
					CHANNELS 3 Zrotation Yrotation Xrotation
					End Site
					{
						OFFSET 0.000000 0.000000 0.000000
					}
				}
			}
		}
	}
	JOINT rhip
	{
		OFFSET -0.060310 -0.090513 -0.013543
		CHANNELS 3 Zrotation Yrotation Xrotation
		JOINT rknee
		{
			OFFSET -0.043257 -0.383688 -0.004843
			CHANNELS 3 Zrotation Yrotation Xrotation
			JOINT rankle
			{
				OFFSET 0.019056 -0.420046 -0.034562
				CHANNELS 3 Zrotation Yrotation Xrotation
				JOINT rtoe
				{
					OFFSET -0.034840 -0.062106 0.130323
					CHANNELS 3 Zrotation Yrotation Xrotation
					End Site
					{
						OFFSET 0.000000 0.000000 0.000000
					}
				}
			}
		}
	}
	JOINT lowerback
	{
		OFFSET 0.004439 0.124404 -0.038385
		CHANNELS 3 Zrotation Yrotation Xrotation
		JOINT upperback
		{
			OFFSET 0.004488 0.137956 0.026820
			CHANNELS 3 Zrotation Yrotation Xrotation
			JOINT chest
			{
				OFFSET -0.002265 0.056032 0.002855
				CHANNELS 3 Zrotation Yrotation Xrotation
				JOINT lowerneck
				{
					OFFSET -0.013390 0.211636 -0.033468
					CHANNELS 3 Zrotation Yrotation Xrotation
					JOINT upperneck
					{
						OFFSET 0.010113 0.088937 0.050410
						CHANNELS 3 Zrotation Yrotation Xrotation
						End Site
						{
							OFFSET 0.000000 0.000000 0.000000
						}
					}
				}
				JOINT lclavicle
				{
					OFFSET 0.071702 0.114000 -0.018898
					CHANNELS 3 Zrotation Yrotation Xrotation
					JOINT lshoulder
					{
						OFFSET 0.122921 0.045205 -0.019046
						CHANNELS 3 Zrotation Yrotation Xrotation
						JOINT lelbow
						{
							OFFSET 0.255332 -0.015649 -0.022946
							CHANNELS 3 Zrotation Yrotation Xrotation
							JOINT lwrist
							{
								OFFSET 0.265709 0.012698 -0.007375
								CHANNELS 3 Zrotation Yrotation Xrotation
								End Site
								{
									OFFSET 0.000000 0.000000 0.000000
								}
							}
						}
					}
				}
				JOINT rclavicle
				{
					OFFSET -0.082954 0.112472 -0.023707
					CHANNELS 3 Zrotation Yrotation Xrotation
					JOINT rshoulder
					{
						OFFSET -0.113228 0.046853 -0.008472
						CHANNELS 3 Zrotation Yrotation Xrotation
						JOINT relbow
						{
							OFFSET -0.260127 -0.014369 -0.031269
							CHANNELS 3 Zrotation Yrotation Xrotation
							JOINT rwrist
							{
								OFFSET -0.269108 0.006794 -0.006027
								CHANNELS 3 Zrotation Yrotation Xrotation
								End Site
								{
									OFFSET 0.000000 0.000000 0.000000
								}
							}
						}
					}
				}
			}
		}
	}
}
MOTION
Frames: 5
Frame Time: 0.033333
0.171619 0.488887 0.955473 85.123618 0.670447 81.084165 -6.945405 -6.891309 -8.877898 -9.807326 -0.579426 33.748124 8.740527 14.757790 -22.972508 0.000000 -0.000000 0.000000 -6.505906 -1.271264 -31.718301 3.587478 -9.925439 15.199698 3.349647 -8.406302 38.025038 0.000000 -0.000000 0.000000 -3.676236 -0.774059 20.237128 3.879658 -4.662115 6.636345 -0.385809 2.146015 -3.868730 -2.152197 -3.880465 13.856744 0.810588 -1.041361 15.970233 -3.731220 -12.859774 -4.474865 -42.240823 -39.003371 16.147295 49.372677 -65.858860 -47.276209 -9.923072 -14.497294 -36.584493 8.154708 14.696949 -2.802210 36.826278 23.996965 8.267127 -77.766013 78.999351 -70.908400 10.794767 5.424677 -15.173828 
0.171727 0.488056 0.953293 85.354800 0.726181 80.962414 -7.234091 -7.374345 -8.964367 -9.708526 -1.133503 34.372703 8.967059 15.435972 -23.247076 0.000000 -0.000000 0.000000 -6.402028 -1.394900 -31.703669 3.483893 -10.310116 15.034084 3.888087 -8.948814 37.021717 0.000000 -0.000000 0.000000 -3.687894 -0.590238 20.793612 4.098307 -4.651313 6.239110 -0.331559 1.913031 -3.538095 -2.734450 -4.318225 13.760211 1.269751 -0.450146 15.734653 -4.931909 -12.258798 -3.628120 -43.366938 -38.163907 17.266029 47.613186 -67.472954 -45.351615 -9.545204 -13.340737 -37.249138 9.368423 13.969332 -2.033990 37.407092 22.946878 8.946441 -77.976372 80.443336 -70.911850 10.227989 5.305875 -15.063076 
0.171804 0.487392 0.950860 85.382521 0.752414 80.785945 -7.247986 -7.817642 -9.129618 -9.596792 -0.721350 35.136015 9.167698 15.603935 -23.572705 0.000000 -0.000000 0.000000 -6.432182 -1.263716 -31.772422 3.505605 -10.710913 15.210517 3.511734 -8.937398 37.045342 0.000000 -0.000000 0.000000 -3.690609 -0.599784 21.287793 4.123012 -4.558868 6.858897 -0.380205 1.916911 -3.981669 -2.462498 -4.290309 13.214647 0.858243 -0.694120 16.329007 -5.881315 -11.171171 -3.416008 -45.111635 -37.270213 18.961331 44.981292 -68.705034 -42.939929 -10.807815 -14.655486 -36.206609 10.282371 12.853546 -1.547926 38.391086 22.103022 10.088717 -76.988532 81.553015 -70.271299 11.718772 5.056154 -15.435389 
0.171368 0.486299 0.948761 85.382444 0.861292 80.872172 -6.945660 -7.972086 -9.648381 -9.925886 -0.522095 35.976658 9.224161 15.763624 -23.967718 0.000000 -0.000000 0.000000 -6.403370 -1.078580 -32.142653 3.593197 -10.432153 15.550206 2.784752 -8.592330 38.240937 0.000000 -0.000000 0.000000 -3.707236 -0.601870 21.153590 4.311758 -4.591280 7.543718 -0.480324 1.919057 -4.050338 -2.433223 -4.600856 12.809921 0.569826 -0.307621 16.395164 -7.014159 -10.644204 -2.816322 -46.100086 -35.895404 20.006348 44.079334 -69.885345 -41.552417 -11.981410 -13.948892 -37.065766 11.221908 12.167870 -1.381681 39.101307 21.167823 10.955844 -70.422263 82.504692 -63.481809 12.564963 5.114688 -15.703435 
0.169939 0.485193 0.946906 84.986248 0.510198 80.750157 -7.194356 -7.541600 -9.717262 -9.987028 -0.486377 36.215968 9.452437 15.985198 -24.370115 0.000000 -0.000000 0.000000 -6.601981 -0.833603 -32.422203 3.560136 -10.420847 15.598695 2.770540 -8.721821 38.304797 0.000000 -0.000000 0.000000 -4.164864 -0.359114 21.999356 4.276412 -4.169494 7.153636 -0.554103 1.829329 -3.820556 -2.235106 -4.628965 12.328678 0.703178 -0.314108 16.648379 -7.829942 -9.730139 -2.560638 -47.097060 -34.904290 21.176198 39.519942 -70.998543 -36.141959 -9.424800 -13.703812 -36.675570 12.458715 11.362554 -0.926460 39.436011 20.222271 11.621008 -62.411509 83.883625 -55.457188 11.057312 4.872923 -15.021288 
